<svg height="512" viewBox="0 0 448 512" width="448" xmlns="http://www.w3.org/2000/svg"><path d="m48 32c-26.5 0-48 21.5-48 48v352c0 26.5 21.5 48 48 48h352c26.5 0 48-21.5 48-48v-352c0-26.5-21.5-48-48-48zm63.91992 119.06055c26.48919-.34065 51.10387 16.35319 66.95899 47.35937a88.610631 88.610631 0 0 1 48.875-14.69726 88.610631 88.610631 0 0 1 43.19921 11.24609c23.11005-41.89097 62.88163-55.52083 100.41407-33.44336-23.9639-3.3327-39.48438-1.54883-39.48438-1.54883s29.87982 10.60561 52.11719 43.7168c-12.54567-9.29411-30.91211-17.42188-30.91211-17.42188s10.45297 11.20795 14.70899 24.48633c2.63656 8.22588 1.65315 28.95307-15.55665 39.12891-11.97086 7.07813-26.6312 7.26268-38.10546 2.70312a88.610631 88.610631 0 0 1 2.22851 19.74414 88.610631 88.610631 0 0 1 -88.60937 88.61133 88.610631 88.610631 0 0 1 -88.61329-88.61133 88.610631 88.610631 0 0 1 3.50391-24.6621c-11.80819 9.04014-31.55224 11.28072-46.884764 2.21484-17.209717-10.17584-18.1932-30.90303-15.556641-39.12891 4.255992-13.27838 14.708984-24.48633 14.708984-24.48633s-18.366513 8.12777-30.912109 17.42188c22.237269-33.11119 52.11719-43.7168 52.11719-43.7168s-15.52059-1.78387-39.484378 1.54883c11.735942-6.9034 23.690808-10.31571 35.287108-10.46484zm115.83399 55.26367a66.010326 66.010326 0 0 0 -66.00977 66.00976 66.010326 66.010326 0 0 0 66.00977 66.00977 66.010326 66.010326 0 0 0 66.00976-66.00977 66.010326 66.010326 0 0 0 -66.00976-66.00976zm0 30.57031a35.441025 35.441025 0 0 1 35.43945 35.43945 35.441025 35.441025 0 0 1 -35.43945 35.44141 35.441025 35.441025 0 0 1 -35.44141-35.44141 35.441025 35.441025 0 0 1 35.44141-35.43945zm10.58789 6.03906a13.51707 13.51707 0 0 0 -13.35547 13.51758 13.51707 13.51707 0 0 0 13.51758 13.51563 13.51707 13.51707 0 0 0 13.51562-13.51563 13.51707 13.51707 0 0 0 -13.51562-13.51758 13.51707 13.51707 0 0 0 -.16211 0z"/></svg>